HIERARCHY
ROOT Hips
{
	OFFSET 0.000000 71.427986 0.000000
	CHANNELS 6 Xposition Yposition Zposition Xrotation Yrotation Zrotation
	JOINT Pelvis
	{
		OFFSET 0.000000 0.000000 0.000000
		CHANNELS 3 Xrotation Yrotation Zrotation
		JOINT LeftUpLeg
		{
			OFFSET 6.797100 -2.508499 -1.318700
			CHANNELS 3 Xrotation Yrotation Zrotation
			JOINT LeftLeg
			{
				OFFSET 0.069008 -29.241863 0.690200
				CHANNELS 3 Xrotation Yrotation Zrotation
				JOINT LeftFoot
				{
					OFFSET -0.069008 -29.568123 -0.266800
					CHANNELS 3 Xrotation Yrotation Zrotation
					JOINT LeftToeBase
					{
						OFFSET 3.145500 -8.631000 16.059900
						CHANNELS 3 Xrotation Yrotation Zrotation
						End Site
						{
							OFFSET 0.000000 18.501587 0.000000
						}
					}
				}
			}
			JOINT Left_ShortSleeve
			{
				OFFSET 0.265923 -10.480953 1.153800
				CHANNELS 3 Xrotation Yrotation Zrotation
				End Site
				{
					OFFSET 1.725763 19.823879 0.000000
				}
			}
		}
		JOINT RightUpLeg
		{
			OFFSET -6.797100 -2.508499 -1.318700
			CHANNELS 3 Xrotation Yrotation Zrotation
			JOINT RightLeg
			{
				OFFSET -0.082453 -29.241932 0.688000
				CHANNELS 3 Xrotation Yrotation Zrotation
				JOINT RightFoot
				{
					OFFSET 0.082453 -29.568058 -0.264600
					CHANNELS 3 Xrotation Yrotation Zrotation
					JOINT RightToeBase
					{
						OFFSET -3.115300 -8.682800 16.113400
						CHANNELS 3 Xrotation Yrotation Zrotation
						End Site
						{
							OFFSET 0.000000 18.567114 0.000000
						}
					}
				}
			}
			JOINT Right_ShortSleeve
			{
				OFFSET -0.265923 -10.480953 1.153800
				CHANNELS 3 Xrotation Yrotation Zrotation
				End Site
				{
					OFFSET -1.725766 19.823910 0.000000
				}
			}
		}
	}
	JOINT Spine
	{
		OFFSET 0.000000 13.368103 0.470500
		CHANNELS 3 Xrotation Yrotation Zrotation
		JOINT Spine1
		{
			OFFSET 0.147000 13.837402 0.538800
			CHANNELS 3 Xrotation Yrotation Zrotation
			JOINT Spine2
			{
				OFFSET 0.168000 16.242897 -1.435500
				CHANNELS 3 Xrotation Yrotation Zrotation
				JOINT Neck
				{
					OFFSET 0.217200 18.631500 -1.679100
					CHANNELS 3 Xrotation Yrotation Zrotation
					JOINT Head
					{
						OFFSET 0.000000 6.599396 1.385900
						CHANNELS 3 Xrotation Yrotation Zrotation
						JOINT Hat
						{
							OFFSET -0.532200 27.220596 -10.096100
							CHANNELS 3 Xrotation Yrotation Zrotation
							End Site
							{
								OFFSET 0.000000 22.029861 0.000000
							}
						}
						JOINT HairD
						{
							OFFSET -10.777400 17.437393 -1.325900
							CHANNELS 3 Xrotation Yrotation Zrotation
							JOINT HairD1
							{
								OFFSET -3.290299 -11.051193 1.062200
								CHANNELS 3 Xrotation Yrotation Zrotation
								End Site
								{
									OFFSET 0.000000 11.579437 0.000000
								}
							}
						}
						JOINT HairB
						{
							OFFSET -10.777400 17.437393 1.467900
							CHANNELS 3 Xrotation Yrotation Zrotation
							JOINT HairB1
							{
								OFFSET -1.561200 -12.956299 3.590200
								CHANNELS 3 Xrotation Yrotation Zrotation
								End Site
								{
									OFFSET 0.000000 13.534866 0.000000
								}
							}
						}
						JOINT HairA
						{
							OFFSET 9.713100 17.437393 1.467900
							CHANNELS 3 Xrotation Yrotation Zrotation
							JOINT HairA1
							{
								OFFSET 1.561200 -12.956299 3.590200
								CHANNELS 3 Xrotation Yrotation Zrotation
								End Site
								{
									OFFSET 0.000000 13.534866 0.000000
								}
							}
						}
						JOINT HairC
						{
							OFFSET 9.713100 17.437393 -1.325900
							CHANNELS 3 Xrotation Yrotation Zrotation
							JOINT HairC1
							{
								OFFSET 3.290300 -11.051193 1.062200
								CHANNELS 3 Xrotation Yrotation Zrotation
								End Site
								{
									OFFSET 0.000000 11.579437 0.000000
								}
							}
						}
					}
				}
				JOINT LeftShoulder
				{
					OFFSET 5.101800 15.108002 -2.763700
					CHANNELS 3 Xrotation Yrotation Zrotation
					JOINT LeftArm
					{
						OFFSET 9.825497 2.506317 -1.597400
						CHANNELS 3 Xrotation Yrotation Zrotation
						JOINT LeftForeArm
						{
							OFFSET 21.966244 0.000000 0.000000
							CHANNELS 3 Xrotation Yrotation Zrotation
							JOINT LeftHand
							{
								OFFSET 33.879036 0.000000 0.000000
								CHANNELS 3 Xrotation Yrotation Zrotation
								JOINT LeftHandThumb1
								{
									OFFSET 6.715286 -2.359680 3.363841
									CHANNELS 3 Xrotation Yrotation Zrotation
									JOINT LeftHandThumb2
									{
										OFFSET 2.507072 -1.447464 1.447461
										CHANNELS 3 Xrotation Yrotation Zrotation
										JOINT LeftHandThumb3
										{
											OFFSET 2.898338 -1.673355 1.673357
											CHANNELS 3 Xrotation Yrotation Zrotation
											End Site
											{
												OFFSET -0.295959 3.727692 -0.131651
											}
										}
									}
								}
								JOINT LeftHandIndex1
								{
									OFFSET 14.190811 -0.254547 3.840278
									CHANNELS 3 Xrotation Yrotation Zrotation
									JOINT LeftHandIndex2
									{
										OFFSET 3.551727 0.000000 -0.000000
										CHANNELS 3 Xrotation Yrotation Zrotation
										JOINT LeftHandIndex3
										{
											OFFSET 2.894196 0.000000 0.000000
											CHANNELS 3 Xrotation Yrotation Zrotation
											End Site
											{
												OFFSET -1.000603 2.690872 0.366626
											}
										}
									}
								}
								JOINT LeftHandMiddle1
								{
									OFFSET 13.776489 0.000000 0.000000
									CHANNELS 3 Xrotation Yrotation Zrotation
									JOINT LeftHandMiddle2
									{
										OFFSET 3.438232 0.000000 0.000000
										CHANNELS 3 Xrotation Yrotation Zrotation
										JOINT LeftHandMiddle3
										{
											OFFSET 3.691551 0.000000 0.000000
											CHANNELS 3 Xrotation Yrotation Zrotation
											End Site
											{
												OFFSET -1.082298 3.499527 0.457670
											}
										}
									}
								}
								JOINT LeftHandRing1
								{
									OFFSET 13.966164 -0.268127 -3.067488
									CHANNELS 3 Xrotation Yrotation Zrotation
									JOINT LeftHandRing2
									{
										OFFSET 3.162567 0.000000 0.000000
										CHANNELS 3 Xrotation Yrotation Zrotation
										JOINT LeftHandRing3
										{
											OFFSET 3.324348 0.000000 0.000000
											CHANNELS 3 Xrotation Yrotation Zrotation
											End Site
											{
												OFFSET -0.861900 3.184998 0.405154
											}
										}
									}
								}
								JOINT LeftHandPinky1
								{
									OFFSET 13.131393 -0.168503 -5.746925
									CHANNELS 3 Xrotation Yrotation Zrotation
									JOINT LeftHandPinky2
									{
										OFFSET 2.849182 0.000000 0.000000
										CHANNELS 3 Xrotation Yrotation Zrotation
										JOINT LeftHandPinky3
										{
											OFFSET 2.805038 0.000000 0.000000
											CHANNELS 3 Xrotation Yrotation Zrotation
											End Site
											{
												OFFSET -0.882500 2.642609 0.325652
											}
										}
									}
								}
							}
							JOINT Left_Sleeve
							{
								OFFSET 6.592125 -0.646545 0.805568
								CHANNELS 3 Xrotation Yrotation Zrotation
								End Site
								{
									OFFSET -0.000179 20.275787 -0.000000
								}
							}
						}
					}
				}
				JOINT RightShoulder
				{
					OFFSET -5.731700 15.108002 -2.763700
					CHANNELS 3 Xrotation Yrotation Zrotation
					JOINT RightArm
					{
						OFFSET -9.825497 2.506317 -1.597400
						CHANNELS 3 Xrotation Yrotation Zrotation
						JOINT RightForeArm
						{
							OFFSET -21.966242 0.000000 0.000000
							CHANNELS 3 Xrotation Yrotation Zrotation
							JOINT RightHand
							{
								OFFSET -33.879032 0.000000 0.000000
								CHANNELS 3 Xrotation Yrotation Zrotation
								JOINT RightHandThumb1
								{
									OFFSET -6.715286 -2.359680 3.363841
									CHANNELS 3 Xrotation Yrotation Zrotation
									JOINT RightHandThumb2
									{
										OFFSET -2.507072 -1.447464 1.447461
										CHANNELS 3 Xrotation Yrotation Zrotation
										JOINT RightHandThumb3
										{
											OFFSET -2.898338 -1.673355 1.673357
											CHANNELS 3 Xrotation Yrotation Zrotation
											End Site
											{
												OFFSET 0.295959 3.727692 -0.131651
											}
										}
									}
								}
								JOINT RightHandIndex1
								{
									OFFSET -14.190811 -0.254547 3.840278
									CHANNELS 3 Xrotation Yrotation Zrotation
									JOINT RightHandIndex2
									{
										OFFSET -3.551727 0.000000 -0.000000
										CHANNELS 3 Xrotation Yrotation Zrotation
										JOINT RightHandIndex3
										{
											OFFSET -2.894196 0.000000 0.000000
											CHANNELS 3 Xrotation Yrotation Zrotation
											End Site
											{
												OFFSET 1.000603 2.690872 0.366626
											}
										}
									}
								}
								JOINT RightHandMiddle1
								{
									OFFSET -13.776489 0.000000 0.000000
									CHANNELS 3 Xrotation Yrotation Zrotation
									JOINT RightHandMiddle2
									{
										OFFSET -3.438232 0.000000 0.000000
										CHANNELS 3 Xrotation Yrotation Zrotation
										JOINT RightHandMiddle3
										{
											OFFSET -3.691551 0.000000 0.000000
											CHANNELS 3 Xrotation Yrotation Zrotation
											End Site
											{
												OFFSET 1.082298 3.499527 0.457670
											}
										}
									}
								}
								JOINT RightHandRing1
								{
									OFFSET -13.966164 -0.268127 -3.067488
									CHANNELS 3 Xrotation Yrotation Zrotation
									JOINT RightHandRing2
									{
										OFFSET -3.162567 0.000000 0.000000
										CHANNELS 3 Xrotation Yrotation Zrotation
										JOINT RightHandRing3
										{
											OFFSET -3.324348 0.000000 0.000000
											CHANNELS 3 Xrotation Yrotation Zrotation
											End Site
											{
												OFFSET 0.861900 3.184998 0.405154
											}
										}
									}
								}
								JOINT RightHandPinky1
								{
									OFFSET -13.131393 -0.168503 -5.746925
									CHANNELS 3 Xrotation Yrotation Zrotation
									JOINT RightHandPinky2
									{
										OFFSET -2.849182 0.000000 0.000000
										CHANNELS 3 Xrotation Yrotation Zrotation
										JOINT RightHandPinky3
										{
											OFFSET -2.805038 0.000000 0.000000
											CHANNELS 3 Xrotation Yrotation Zrotation
											End Site
											{
												OFFSET 0.882500 2.642609 0.325652
											}
										}
									}
								}
							}
							JOINT Right_Sleeve
							{
								OFFSET -6.592125 -0.646545 0.805568
								CHANNELS 3 Xrotation Yrotation Zrotation
								End Site
								{
									OFFSET 0.000179 20.275787 -0.000000
								}
							}
						}
					}
				}
				JOINT Bind_Right_JacketString
				{
					OFFSET -3.534800 11.969597 7.200700
					CHANNELS 3 Xrotation Yrotation Zrotation
					JOINT Bind_Right_JacketString1
					{
						OFFSET -0.319900 -6.102600 2.794100
						CHANNELS 3 Xrotation Yrotation Zrotation
						End Site
						{
							OFFSET 0.000000 6.719452 0.000000
						}
					}
				}
				JOINT Bind_Left_JacketString
				{
					OFFSET 2.904800 11.969597 7.200700
					CHANNELS 3 Xrotation Yrotation Zrotation
					JOINT Bind_Left_JacketString1
					{
						OFFSET 0.364800 -5.904503 3.186800
						CHANNELS 3 Xrotation Yrotation Zrotation
						End Site
						{
							OFFSET 0.000000 6.719513 0.000000
						}
					}
				}
				JOINT HairE
				{
					OFFSET 5.915200 17.612701 -11.592200
					CHANNELS 3 Xrotation Yrotation Zrotation
					JOINT HairE1
					{
						OFFSET 0.289200 -7.171898 -1.284500
						CHANNELS 3 Xrotation Yrotation Zrotation
						End Site
						{
							OFFSET 0.000000 7.291756 0.000000
						}
					}
				}
				JOINT HairF
				{
					OFFSET -0.864800 17.612701 -11.592200
					CHANNELS 3 Xrotation Yrotation Zrotation
					JOINT HairF1
					{
						OFFSET 0.000000 -14.087097 -2.127501
						CHANNELS 3 Xrotation Yrotation Zrotation
						End Site
						{
							OFFSET 0.000000 14.246841 0.000000
						}
					}
				}
				JOINT HairG
				{
					OFFSET -8.087700 17.612701 -11.592200
					CHANNELS 3 Xrotation Yrotation Zrotation
					JOINT HairG1
					{
						OFFSET -0.293600 -6.081398 -0.910100
						CHANNELS 3 Xrotation Yrotation Zrotation
						End Site
						{
							OFFSET 0.000000 6.156120 0.000000
						}
					}
				}
			}
		}
	}
	JOINT Pouch
	{
		OFFSET 0.000000 4.394501 10.847300
		CHANNELS 3 Xrotation Yrotation Zrotation
		End Site
		{
			OFFSET 0.000000 21.880577 0.000000
		}
	}
	JOINT Bag
	{
		OFFSET -13.229000 4.813004 -0.593300
		CHANNELS 3 Xrotation Yrotation Zrotation
		End Site
		{
			OFFSET 0.000000 21.880577 0.000000
		}
	}
	JOINT OccupyGuyFacialAnim_Joint
	{
		OFFSET 1.000000 -70.206398 -1.655000
		CHANNELS 3 Xrotation Yrotation Zrotation
		End Site
		{
			OFFSET 0.000000 21.880577 0.000000
		}
	}
}
MOTION
Frames: 4
Frame Time: 0.033333
0.694188 69.993439 0.903275 9.376488 -9.933057 -4.600553 -0.000001 0.000001 0.000000 -34.813324 -5.383028 9.041463 65.286698 3.256511 -11.478306 -3.052784 19.096886 -2.418064 0.000002 0.000001 -0.000001 0.000000 -0.000001 0.000001 -13.837557 0.680433 6.608022 23.881869 -7.150153 -1.061357 -16.716196 0.017865 -2.802414 -0.000000 -0.000001 -0.000000 -0.000000 -0.000000 -0.000000 6.939062 2.717458 2.348333 0.133676 0.393480 -1.065054 0.139497 0.379641 -1.069732 1.598119 -0.058710 3.276274 -0.577636 4.152165 -1.176090 0.000001 0.000000 0.000000 0.000001 0.000000 0.000000 0.000001 0.000000 0.000000 0.000001 0.000000 0.000000 0.000001 0.000000 0.000000 0.000001 0.000000 0.000000 0.000001 0.000000 0.000000 0.000001 0.000000 0.000000 0.000001 0.000000 0.000000 -0.012693 2.394135 2.398479 9.699848 -22.706962 -67.082471 -0.000033 -68.947843 -0.000036 27.917813 12.817834 -4.191218 -1.540058 3.690186 6.142352 3.939070 7.948685 0.746802 -0.000000 0.000001 -0.000002 0.049250 0.823771 -6.842902 0.073228 1.003547 -8.345900 0.000004 0.000001 -0.000002 0.049019 0.821881 -6.826911 0.073525 1.005425 -8.361893 -0.000000 0.000000 0.000002 0.103896 1.193982 -9.944995 0.148570 1.425488 -11.899829 0.000000 -0.000001 -0.000002 0.831001 5.239748 -9.939963 0.157422 -2.567473 -12.931136 0.000000 -0.000001 0.000003 0.000004 -0.000003 0.000000 1.137415 8.678769 6.742251 20.550817 8.749384 47.744972 -0.000006 32.205647 -0.000018 15.898208 0.995436 15.574148 -1.849265 -3.581785 -6.586142 5.774983 -12.765870 -2.013879 0.000004 -0.000001 0.000001 0.148385 -1.431632 11.833798 0.239064 -1.811078 15.038178 -0.000004 -0.000001 0.000004 0.148392 -1.431621 11.833812 0.220649 -1.741195 14.444539 0.000000 -0.000001 -0.000001 0.148384 -1.431618 11.833797 0.273479 -1.934540 16.090773 0.000004 -0.000001 -0.000002 0.148381 -1.431632 11.833794 0.280459 -1.958591 16.296587 -0.000003 0.000003 -0.000001 -0.000000 -0.000001 -0.000002 0.000000 -0.000000 0.000000 0.000000 -0.000000 -0.000000 0.000000 -0.000000 0.000000 0.000000 -0.000000 0.000000 0.000000 -0.000000 0.000000 0.000000 -0.000000 -0.000000 0.000000 -0.000000 0.000000 0.000000 -0.000000 0.000000 0.000000 -0.000000 0.000000 0.000000 -0.000000 -0.000000 -0.000001 0.000001 0.000000 -0.000001 0.000001 0.000000 -0.000001 0.000001 0.000000 
0.707914 70.037804 -0.821208 9.106368 -10.905213 -4.395035 0.000000 0.000000 -0.000000 -34.146766 -5.286564 9.088277 62.780818 2.231442 -11.566635 -4.889207 19.433435 -2.144120 0.000000 0.000000 -0.000000 -0.000001 0.000000 0.000000 -8.957877 -1.599489 5.881495 22.323165 -7.179264 -1.819954 -18.395205 1.985690 -2.361207 -0.000000 -0.000001 0.000000 0.000000 -0.000000 -0.000000 6.153883 4.102619 2.008465 -0.003900 0.607543 -0.950156 0.005635 0.598579 -0.959673 1.595992 -0.156500 3.269147 -0.342525 3.565729 -0.858350 0.000002 0.000000 -0.000000 0.000002 0.000000 -0.000000 0.000002 0.000000 0.000000 0.000002 0.000000 0.000000 0.000001 0.000000 0.000000 0.000002 0.000000 0.000000 0.000001 0.000000 0.000000 0.000002 0.000000 -0.000000 0.000002 0.000000 -0.000000 -0.065959 2.897788 2.856955 14.102788 -27.911554 -66.301527 -0.000015 -62.816942 -0.000016 22.050096 11.412530 -7.036174 -1.540057 3.690184 6.142353 3.943708 7.911408 0.734899 -0.000000 -0.000000 -0.000001 0.030122 0.644844 -5.351240 0.046326 0.799122 -6.637094 0.000002 0.000002 -0.000002 0.029944 0.642913 -5.335243 0.046559 0.801037 -6.653096 -0.000001 0.000000 0.000001 0.049266 0.823970 -6.844291 0.073258 1.003711 -8.347510 0.000000 0.000000 0.000000 0.742723 5.135943 -8.963690 0.128605 -2.698538 -11.820459 -0.000002 0.000001 -0.000001 0.000001 0.000001 -0.000003 1.063055 8.801202 8.246019 18.427820 8.624295 49.611912 -0.000004 33.700676 -0.000003 18.700334 0.230006 14.412645 -1.849265 -3.581787 -6.586144 5.557980 -11.900756 -1.639402 0.000001 0.000001 0.000000 0.117449 -1.275175 10.524403 0.196440 -1.644254 13.623832 0.000001 0.000001 -0.000001 0.117444 -1.275175 10.524399 0.179180 -1.571407 13.009097 -0.000003 -0.000000 -0.000001 0.117441 -1.275164 10.524410 0.227129 -1.766049 14.655363 0.000004 -0.000002 -0.000001 0.117439 -1.275174 10.524396 0.233502 -1.790277 14.861112 -0.000002 0.000002 -0.000003 -0.000001 -0.000001 0.000001 0.000002 0.000000 0.000000 0.000002 -0.000000 -0.000000 0.000002 0.000000 0.000000 0.000002 0.000000 0.000000 0.000002 0.000000 0.000000 0.000002 -0.000000 -0.000000 0.000002 0.000000 0.000000 0.000002 0.000000 0.000000 0.000002 0.000000 0.000000 0.000002 -0.000000 -0.000000 0.000000 0.000000 -0.000000 0.000000 0.000000 -0.000000 0.000000 0.000000 -0.000000 
0.627237 70.057182 -2.565222 8.229108 -12.073179 -4.257728 0.000001 0.000000 0.000001 -32.253963 -5.974567 9.030138 59.311286 1.421854 -11.555611 -6.532036 19.080111 -3.149672 0.000000 -0.000000 0.000000 0.000000 0.000001 0.000000 -4.035270 -2.190834 5.282388 20.943074 -6.515275 -2.226320 -19.263819 1.929610 -2.453575 -0.000001 0.000001 0.000001 -0.000000 -0.000001 0.000000 5.649998 5.613225 1.706278 -0.129183 0.844539 -0.878812 -0.115941 0.838398 -0.893356 2.020367 -0.222944 3.273586 0.410508 3.193755 -0.655549 0.000000 -0.000000 -0.000000 0.000000 -0.000000 -0.000000 0.000000 -0.000000 -0.000000 0.000000 -0.000000 0.000000 0.000000 -0.000000 0.000000 0.000000 -0.000000 0.000000 0.000000 -0.000000 0.000000 0.000000 -0.000000 -0.000000 0.000000 -0.000000 -0.000000 -0.136108 3.427643 3.140936 19.164375 -31.565217 -64.497941 -0.000024 -55.896345 -0.000019 21.065946 7.264791 -11.878415 -1.540058 3.690184 6.142353 3.954508 7.824652 0.707170 0.000003 0.000001 0.000001 0.039038 0.733624 -6.090769 0.058902 0.900558 -7.484307 0.000001 0.000000 -0.000002 0.038836 0.731704 -6.074783 0.059144 0.902478 -7.500309 0.000000 0.000000 -0.000001 0.029638 0.639543 -5.307233 0.045628 0.793080 -6.586703 -0.000002 0.000002 -0.000001 0.543625 4.887756 -6.684918 0.071317 -3.006669 -9.226336 -0.000001 -0.000003 0.000001 -0.000000 -0.000000 0.000001 0.957207 9.161473 10.645868 17.545339 9.119397 50.142792 0.000006 37.331639 -0.000019 19.900969 -0.990229 12.852457 -1.849255 -3.581784 -6.586142 5.339601 -11.071924 -1.280878 0.000002 -0.000001 0.000001 0.106575 -1.215181 10.023912 0.181219 -1.580199 13.083180 -0.000003 0.000000 0.000002 0.106570 -1.215188 10.023918 0.164455 -1.506263 12.460670 -0.000001 0.000001 -0.000001 0.106574 -1.215171 10.023916 0.210523 -1.701332 14.106513 -0.000000 0.000000 -0.000003 0.106569 -1.215189 10.023915 0.216678 -1.725600 14.312236 -0.000001 0.000001 0.000001 -0.000001 0.000003 0.000001 0.000001 0.000000 0.000000 0.000001 -0.000000 0.000000 0.000001 0.000000 -0.000000 0.000001 0.000000 -0.000000 0.000001 0.000000 0.000000 0.000001 -0.000000 0.000000 0.000001 0.000000 -0.000000 0.000001 0.000000 -0.000000 0.000001 0.000000 0.000000 0.000001 -0.000000 0.000000 0.000001 0.000000 0.000001 0.000001 0.000000 0.000001 0.000001 0.000000 0.000001 
0.444103 69.969376 -4.294800 6.765378 -13.065188 -4.198401 -0.000000 -0.000000 -0.000000 -28.812528 -7.517730 8.576369 55.026091 1.688976 -11.490268 -9.623865 16.636363 -2.691311 -0.000001 0.000000 -0.000000 0.000001 0.000002 -0.000000 0.685781 -1.265529 4.712556 20.479585 -5.527295 -2.409190 -19.691306 0.522661 -2.464951 -0.000000 0.000001 0.000001 -0.000000 0.000000 -0.000000 5.357350 6.969858 1.501905 -0.202144 1.059257 -0.811136 -0.186229 1.054538 -0.829253 2.821382 -0.255765 3.154371 1.687739 2.898559 -0.703101 0.000000 -0.000000 0.000000 0.000000 -0.000000 0.000000 0.000000 -0.000000 0.000000 0.000000 -0.000000 0.000000 0.000000 -0.000000 0.000000 0.000000 -0.000000 0.000000 0.000000 -0.000000 0.000000 0.000000 -0.000000 0.000000 0.000000 -0.000000 0.000000 -0.192880 3.888716 2.956222 24.302144 -32.791485 -62.151238 -0.000004 -47.799938 -0.000023 21.596886 2.071801 -18.190397 -1.540052 3.690188 6.142354 3.918786 8.109310 0.798128 -0.000000 -0.000000 -0.000000 0.081198 1.056442 -8.789429 0.117444 1.268845 -10.575920 0.000003 0.000002 0.000000 0.080894 1.054526 -8.773448 0.117798 1.270756 -10.591888 -0.000001 -0.000002 0.000004 0.038248 0.726143 -6.028497 0.057784 0.892021 -7.412959 -0.000000 0.000001 -0.000001 0.399659 4.694819 -4.961399 0.037245 -3.241394 -7.262750 0.000002 0.000000 0.000001 0.000003 -0.000001 0.000003 0.818439 9.628017 13.299998 17.898115 10.384720 49.727541 -0.000014 42.906729 0.000020 19.766173 -2.370803 10.802590 -1.849260 -3.581785 -6.586144 5.126387 -10.298183 -0.946171 0.000001 -0.000001 0.000001 0.121155 -1.294963 10.689891 0.201585 -1.665388 13.802454 -0.000003 0.000001 0.000002 0.121161 -1.294972 10.689877 0.184222 -1.593032 13.191504 0.000001 0.000000 -0.000002 0.121169 -1.294959 10.689876 0.232736 -1.787390 14.836574 -0.000001 -0.000000 -0.000001 0.121162 -1.294961 10.689876 0.239201 -1.811590 15.042339 -0.000003 0.000002 -0.000001 0.000000 0.000002 -0.000002 0.000001 0.000000 0.000000 0.000001 0.000000 0.000000 0.000001 0.000000 0.000001 0.000001 0.000000 0.000001 0.000001 0.000000 0.000000 0.000001 0.000000 0.000000 0.000001 0.000000 0.000001 0.000001 0.000000 0.000001 0.000001 0.000000 0.000000 0.000001 0.000000 0.000000 -0.000000 -0.000000 -0.000000 -0.000000 -0.000000 -0.000000 -0.000000 -0.000000 -0.000000 
